<?xml version="1.0" encoding="utf-8"?>
<!-- Generator: Adobe Illustrator 17.1.0, SVG Export Plug-In . SVG Version: 6.00 Build 0)  -->
<!DOCTYPE svg PUBLIC "-//W3C//DTD SVG 1.1//EN" "http://www.w3.org/Graphics/SVG/1.1/DTD/svg11.dtd">
<svg version="1.1" id="Lion_Logo" xmlns="http://www.w3.org/2000/svg" xmlns:xlink="http://www.w3.org/1999/xlink" x="0px" y="0px"
	 viewBox="0 0 88 101" enable-background="new 0 0 88 101" xml:space="preserve">
<path id="White_Outer" fill-rule="evenodd" clip-rule="evenodd" fill="#FFFFFF" d="M44,0c24.3,0,44,19.7,44,44c0,32.8-42.6,57-44,57
	c-1.3,0-44-24-44-57C0,19.7,19.7,0,44,0z"/>
<path id="Red_Inner" fill-rule="evenodd" clip-rule="evenodd" fill="#DB434E" d="M44,5.1c21.5,0,39,17.6,39,39.2
	c0,28.3-38.4,50.8-39,50.8C43.5,95.1,5,73,5,44.3C5,22.7,22.5,5.1,44,5.1z"/>
<path id="Little_Head" fill-rule="evenodd" clip-rule="evenodd" fill="#FFFFFF" d="M57.5,28.5v-8.1l-7.2,4c-2-0.6-4.1-1-6.3-1
	s-4.3,0.4-6.3,1l-7.2-4v8.1c-4.3,3.8-7,9.3-7,15.4c0,11.3,9.2,20.5,20.5,20.5s20.5-9.2,20.5-20.5C64.5,37.7,61.8,32.2,57.5,28.5z
	 M36,41.4c-0.8,0-1.5-0.7-1.5-1.5s0.7-1.5,1.5-1.5s1.5,0.7,1.5,1.5S36.8,41.4,36,41.4z M52,41.4c-0.8,0-1.5-0.7-1.5-1.5
	s0.7-1.5,1.5-1.5s1.5,0.7,1.5,1.5S52.8,41.4,52,41.4z"/>
</svg>
